<?xml version="1.0" encoding="UTF-8" standalone="no"?>
<!-- Generator: Adobe Illustrator 19.0.0, SVG Export Plug-In . SVG Version: 6.00 Build 0)  -->

<svg
   xmlns:dc="http://purl.org/dc/elements/1.1/"
   xmlns:cc="http://creativecommons.org/ns#"
   xmlns:rdf="http://www.w3.org/1999/02/22-rdf-syntax-ns#"
   xmlns:svg="http://www.w3.org/2000/svg"
   xmlns="http://www.w3.org/2000/svg"
   xmlns:sodipodi="http://sodipodi.sourceforge.net/DTD/sodipodi-0.dtd"
   xmlns:inkscape="http://www.inkscape.org/namespaces/inkscape"
   version="1.1"
   id="Capa_1"
   x="0px"
   y="0px"
   viewBox="0 0 394.8 394.8"
   style="enable-background:new 0 0 394.8 394.8;"
   xml:space="preserve"
   sodipodi:docname="iconwhite.svg"
   inkscape:version="0.92.4 (5da689c313, 2019-01-14)"><metadata
   id="metadata51"><rdf:RDF><cc:Work
       rdf:about=""><dc:format>image/svg+xml</dc:format><dc:type
         rdf:resource="http://purl.org/dc/dcmitype/StillImage" /><dc:title></dc:title></cc:Work></rdf:RDF></metadata><defs
   id="defs49">
	

		
	</defs><sodipodi:namedview
   pagecolor="#ffffff"
   bordercolor="#666666"
   borderopacity="1"
   objecttolerance="10"
   gridtolerance="10"
   guidetolerance="10"
   inkscape:pageopacity="0"
   inkscape:pageshadow="2"
   inkscape:window-width="1360"
   inkscape:window-height="745"
   id="namedview47"
   showgrid="false"
   inkscape:snap-text-baseline="false"
   inkscape:zoom="0.59777104"
   inkscape:cx="197.4"
   inkscape:cy="197.39999"
   inkscape:window-x="-8"
   inkscape:window-y="-8"
   inkscape:window-maximized="1"
   inkscape:current-layer="g10" />
<g
   id="g10">
			
			<path
   d="m 345.6,78.8 -0.4,-0.4 V 78 l -76,-76 -0.4,-0.4 c 0,0 -0.4,0 -0.4,-0.4 0,0 -0.4,0 -0.4,-0.4 C 266.8,0 265.6,0 264,0 H 75.6 C 68.4,0 61.6,2.8 56.8,7.6 L 56.4,8 c -4.8,4.8 -8,12 -8,19.2 v 340.4 c 0,7.6 3.2,14.4 8,19.2 4.8,4.8 12,8 19.2,8 h 243.6 c 7.6,0 14.4,-3.2 19.2,-8 4.8,-4.8 8,-12 8,-19.2 V 82.8 c 0,-1.6 -0.4,-2.8 -0.8,-4 z m -74,-50 45.2,45.2 h -33.2 c -3.2,0 -6.4,-1.2 -8.4,-3.6 -2,-2 -3.6,-5.2 -3.6,-8.4 z m 57.6,338.8 c 0,2.8 -1.2,5.2 -3.2,7.2 -2,2 -4.4,3.2 -7.2,3.2 H 75.6 c -2.8,0 -5.2,-1.2 -7.2,-2.8 -2,-2 -2.8,-4.4 -2.8,-7.2 V 26.8 c 0,-2.8 1.2,-5.2 3.2,-7.2 l 0.4,-0.4 c 2,-1.6 4.4,-2.8 6.8,-2.8 h 179.2 v 45.2 c 0,8 3.2,15.2 8.8,20.8 5.2,5.2 12.8,8.4 20.8,8.4 h 44.4 z"
   id="path4"
   inkscape:connector-curvature="0"
   style="fill:#ffffff" />
			
			
		<text
   xml:space="preserve"
   style="font-style:normal;font-variant:normal;font-weight:bold;font-stretch:normal;font-size:10.66666698px;line-height:1.25;font-family:Arial;-inkscape-font-specification:'Arial, Bold';font-variant-ligatures:normal;font-variant-caps:normal;font-variant-numeric:normal;font-feature-settings:normal;text-align:start;letter-spacing:0px;word-spacing:0px;writing-mode:lr-tb;text-anchor:start;fill:#000000;fill-opacity:1;stroke:none"
   x="115.42881"
   y="158.92372"
   id="text871"><tspan
     sodipodi:role="line"
     id="tspan869"
     x="115.42881"
     y="168.53177" /></text>

<text
   xml:space="preserve"
   style="font-style:normal;font-variant:normal;font-weight:bold;font-stretch:normal;font-size:74.66666412px;line-height:1.25;font-family:Arial;-inkscape-font-specification:'Arial, Bold';font-variant-ligatures:normal;font-variant-caps:normal;font-variant-numeric:normal;font-feature-settings:normal;text-align:start;letter-spacing:0px;word-spacing:0px;writing-mode:lr-tb;text-anchor:start;fill:#ffffff;fill-opacity:1;stroke:none;"
   x="195.73865"
   y="205.76439"
   id="text891"><tspan
     sodipodi:role="line"
     id="tspan889"
     x="195.73865"
     y="205.76439"
     style="font-size:106.66666412px;text-align:center;text-anchor:middle;fill:#ffffff;">PDF</tspan><tspan
     sodipodi:role="line"
     x="195.73865"
     y="351.10779"
     style="font-size:120px;text-align:center;text-anchor:middle;fill:#ffffff;"
     id="tspan893">+</tspan></text>

<flowRoot
   xml:space="preserve"
   id="flowRoot895"
   style="font-style:normal;font-variant:normal;font-weight:bold;font-stretch:normal;font-size:74.66666412px;line-height:1.25;font-family:Arial;-inkscape-font-specification:'Arial, Bold';font-variant-ligatures:normal;font-variant-caps:normal;font-variant-numeric:normal;font-feature-settings:normal;text-align:start;letter-spacing:0px;word-spacing:0px;writing-mode:lr-tb;text-anchor:start;fill:#000000;fill-opacity:1;stroke:none"><flowRegion
     id="flowRegion897"><rect
       id="rect899"
       width="83.644066"
       height="222.49321"
       x="73.606781"
       y="90.335594" /></flowRegion><flowPara
     id="flowPara901" /></flowRoot></g>
<g
   id="g16">
</g>
<g
   id="g18">
</g>
<g
   id="g20">
</g>
<g
   id="g22">
</g>
<g
   id="g24">
</g>
<g
   id="g26"
   style="display:inline">
</g>
<g
   id="g28">
</g>
<g
   id="g30">
</g>
<g
   id="g32">
</g>
<g
   id="g34">
</g>
<g
   id="g36">
</g>
<g
   id="g38">
</g>
<g
   id="g40">
</g>
<g
   id="g42">
</g>
<g
   id="g44"
   inkscape:label="g44">
</g>
</svg>